<?xml version="1.0" encoding="utf-8" standalone="no"?>
<!DOCTYPE svg PUBLIC "-//W3C//DTD SVG 1.1//EN"
  "http://www.w3.org/Graphics/SVG/1.1/DTD/svg11.dtd">
<svg xmlns:xlink="http://www.w3.org/1999/xlink" width="180pt" height="144pt" viewBox="0 0 180 144" xmlns="http://www.w3.org/2000/svg" version="1.1">
 <metadata>
  <rdf:RDF xmlns:dc="http://purl.org/dc/elements/1.1/" xmlns:cc="http://creativecommons.org/ns#" xmlns:rdf="http://www.w3.org/1999/02/22-rdf-syntax-ns#">
   <cc:Work>
    <dc:type rdf:resource="http://purl.org/dc/dcmitype/StillImage"/>
    <dc:date>2022-06-07T03:50:58.735088</dc:date>
    <dc:format>image/svg+xml</dc:format>
    <dc:creator>
     <cc:Agent>
      <dc:title>Matplotlib v3.5.1, https://matplotlib.org/</dc:title>
     </cc:Agent>
    </dc:creator>
   </cc:Work>
  </rdf:RDF>
 </metadata>
 <defs>
  <style type="text/css">*{stroke-linejoin: round; stroke-linecap: butt}</style>
 </defs>
 <g id="figure_1">
  <g id="patch_1">
   <path d="M 0 144 
L 180 144 
L 180 0 
L 0 0 
L 0 144 
z
" style="fill: none"/>
  </g>
  <g id="axes_1">
   <g id="patch_2">
    <path d="M 22.5 126 
L 162 126 
L 162 17.28 
L 22.5 17.28 
z
" style="fill: #ffffff"/>
   </g>
   <g id="patch_3">
    <path d="M 22.5 19.4544 
L 138.677997 19.4544 
L 138.677997 28.152 
L 22.5 28.152 
z
" clip-path="url(#p43905a0d7d)" style="fill: #d3d3d3"/>
   </g>
   <g id="patch_4">
    <path d="M 22.5 41.1984 
L 80.561822 41.1984 
L 80.561822 49.896 
L 22.5 49.896 
z
" clip-path="url(#p43905a0d7d)" style="fill: #d3d3d3"/>
   </g>
   <g id="patch_5">
    <path d="M 22.5 62.9424 
L 62.185863 62.9424 
L 62.185863 71.64 
L 22.5 71.64 
z
" clip-path="url(#p43905a0d7d)" style="fill: #d3d3d3"/>
   </g>
   <g id="patch_6">
    <path d="M 22.5 84.6864 
L 145.367348 84.6864 
L 145.367348 93.384 
L 22.5 93.384 
z
" clip-path="url(#p43905a0d7d)" style="fill: #d3d3d3"/>
   </g>
   <g id="patch_7">
    <path d="M 22.5 106.4304 
L 59.954403 106.4304 
L 59.954403 115.128 
L 22.5 115.128 
z
" clip-path="url(#p43905a0d7d)" style="fill: #d3d3d3"/>
   </g>
   <g id="patch_8">
    <path d="M 22.5 28.152 
L 116.830358 28.152 
L 116.830358 36.8496 
L 22.5 36.8496 
z
" clip-path="url(#p43905a0d7d)"/>
   </g>
   <g id="patch_9">
    <path d="M 22.5 49.896 
L 81.220416 49.896 
L 81.220416 58.5936 
L 22.5 58.5936 
z
" clip-path="url(#p43905a0d7d)"/>
   </g>
   <g id="patch_10">
    <path d="M 22.5 71.64 
L 58.893488 71.64 
L 58.893488 80.3376 
L 22.5 80.3376 
z
" clip-path="url(#p43905a0d7d)"/>
   </g>
   <g id="patch_11">
    <path d="M 22.5 93.384 
L 91.150353 93.384 
L 91.150353 102.0816 
L 22.5 102.0816 
z
" clip-path="url(#p43905a0d7d)"/>
   </g>
   <g id="patch_12">
    <path d="M 22.5 115.128 
L 47.367587 115.128 
L 47.367587 123.8256 
L 22.5 123.8256 
z
" clip-path="url(#p43905a0d7d)"/>
   </g>
   <g id="matplotlib.axis_1">
    <g id="xtick_1">
     <g id="line2d_1">
      <defs>
       <path id="m010899d796" d="M 0 0 
L 0 3.5 
" style="stroke: #000000; stroke-width: 0.8"/>
      </defs>
      <g>
       <use xlink:href="#m010899d796" x="22.5" y="126" style="stroke: #000000; stroke-width: 0.8"/>
      </g>
     </g>
     <g id="text_1">
      <!-- 0.0 -->
      <g transform="translate(17.635 138.010469)scale(0.07 -0.07)">
       <defs>
        <path id="ArialMT-30" d="M 266 2259 
Q 266 3072 433 3567 
Q 600 4063 929 4331 
Q 1259 4600 1759 4600 
Q 2128 4600 2406 4451 
Q 2684 4303 2865 4023 
Q 3047 3744 3150 3342 
Q 3253 2941 3253 2259 
Q 3253 1453 3087 958 
Q 2922 463 2592 192 
Q 2263 -78 1759 -78 
Q 1097 -78 719 397 
Q 266 969 266 2259 
z
M 844 2259 
Q 844 1131 1108 757 
Q 1372 384 1759 384 
Q 2147 384 2411 759 
Q 2675 1134 2675 2259 
Q 2675 3391 2411 3762 
Q 2147 4134 1753 4134 
Q 1366 4134 1134 3806 
Q 844 3388 844 2259 
z
" transform="scale(0.015625)"/>
        <path id="ArialMT-2e" d="M 581 0 
L 581 641 
L 1222 641 
L 1222 0 
L 581 0 
z
" transform="scale(0.015625)"/>
       </defs>
       <use xlink:href="#ArialMT-30"/>
       <use xlink:href="#ArialMT-2e" x="55.615234"/>
       <use xlink:href="#ArialMT-30" x="83.398438"/>
      </g>
     </g>
    </g>
    <g id="xtick_2">
     <g id="line2d_2">
      <g>
       <use xlink:href="#m010899d796" x="52.554143" y="126" style="stroke: #000000; stroke-width: 0.8"/>
      </g>
     </g>
     <g id="text_2">
      <!-- 0.5 -->
      <g transform="translate(47.689143 138.010469)scale(0.07 -0.07)">
       <defs>
        <path id="ArialMT-35" d="M 266 1200 
L 856 1250 
Q 922 819 1161 601 
Q 1400 384 1738 384 
Q 2144 384 2425 690 
Q 2706 997 2706 1503 
Q 2706 1984 2436 2262 
Q 2166 2541 1728 2541 
Q 1456 2541 1237 2417 
Q 1019 2294 894 2097 
L 366 2166 
L 809 4519 
L 3088 4519 
L 3088 3981 
L 1259 3981 
L 1013 2750 
Q 1425 3038 1878 3038 
Q 2478 3038 2890 2622 
Q 3303 2206 3303 1553 
Q 3303 931 2941 478 
Q 2500 -78 1738 -78 
Q 1113 -78 717 272 
Q 322 622 266 1200 
z
" transform="scale(0.015625)"/>
       </defs>
       <use xlink:href="#ArialMT-30"/>
       <use xlink:href="#ArialMT-2e" x="55.615234"/>
       <use xlink:href="#ArialMT-35" x="83.398438"/>
      </g>
     </g>
    </g>
    <g id="xtick_3">
     <g id="line2d_3">
      <g>
       <use xlink:href="#m010899d796" x="82.608286" y="126" style="stroke: #000000; stroke-width: 0.8"/>
      </g>
     </g>
     <g id="text_3">
      <!-- 1.0 -->
      <g transform="translate(77.743286 138.010469)scale(0.07 -0.07)">
       <defs>
        <path id="ArialMT-31" d="M 2384 0 
L 1822 0 
L 1822 3584 
Q 1619 3391 1289 3197 
Q 959 3003 697 2906 
L 697 3450 
Q 1169 3672 1522 3987 
Q 1875 4303 2022 4600 
L 2384 4600 
L 2384 0 
z
" transform="scale(0.015625)"/>
       </defs>
       <use xlink:href="#ArialMT-31"/>
       <use xlink:href="#ArialMT-2e" x="55.615234"/>
       <use xlink:href="#ArialMT-30" x="83.398438"/>
      </g>
     </g>
    </g>
    <g id="xtick_4">
     <g id="line2d_4">
      <g>
       <use xlink:href="#m010899d796" x="112.662429" y="126" style="stroke: #000000; stroke-width: 0.8"/>
      </g>
     </g>
     <g id="text_4">
      <!-- 1.5 -->
      <g transform="translate(107.797429 138.010469)scale(0.07 -0.07)">
       <use xlink:href="#ArialMT-31"/>
       <use xlink:href="#ArialMT-2e" x="55.615234"/>
       <use xlink:href="#ArialMT-35" x="83.398438"/>
      </g>
     </g>
    </g>
    <g id="xtick_5">
     <g id="line2d_5">
      <g>
       <use xlink:href="#m010899d796" x="142.716573" y="126" style="stroke: #000000; stroke-width: 0.8"/>
      </g>
     </g>
     <g id="text_5">
      <!-- 2.0 -->
      <g transform="translate(137.851573 138.010469)scale(0.07 -0.07)">
       <defs>
        <path id="ArialMT-32" d="M 3222 541 
L 3222 0 
L 194 0 
Q 188 203 259 391 
Q 375 700 629 1000 
Q 884 1300 1366 1694 
Q 2113 2306 2375 2664 
Q 2638 3022 2638 3341 
Q 2638 3675 2398 3904 
Q 2159 4134 1775 4134 
Q 1369 4134 1125 3890 
Q 881 3647 878 3216 
L 300 3275 
Q 359 3922 746 4261 
Q 1134 4600 1788 4600 
Q 2447 4600 2831 4234 
Q 3216 3869 3216 3328 
Q 3216 3053 3103 2787 
Q 2991 2522 2730 2228 
Q 2469 1934 1863 1422 
Q 1356 997 1212 845 
Q 1069 694 975 541 
L 3222 541 
z
" transform="scale(0.015625)"/>
       </defs>
       <use xlink:href="#ArialMT-32"/>
       <use xlink:href="#ArialMT-2e" x="55.615234"/>
       <use xlink:href="#ArialMT-30" x="83.398438"/>
      </g>
     </g>
    </g>
    <g id="text_6">
     <!-- $ERG4$ Expression Fold Change -->
     <g transform="translate(43.355 148.651719)scale(0.07 -0.07)">
      <defs>
       <path id="DejaVuSans-Oblique-45" d="M 1081 4666 
L 4031 4666 
L 3928 4134 
L 1606 4134 
L 1338 2753 
L 3566 2753 
L 3463 2222 
L 1234 2222 
L 909 531 
L 3284 531 
L 3181 0 
L 172 0 
L 1081 4666 
z
" transform="scale(0.015625)"/>
       <path id="DejaVuSans-Oblique-52" d="M 1613 4147 
L 1294 2491 
L 2106 2491 
Q 2584 2491 2879 2755 
Q 3175 3019 3175 3444 
Q 3175 3784 2976 3965 
Q 2778 4147 2406 4147 
L 1613 4147 
z
M 2772 2241 
Q 2972 2194 3105 2009 
Q 3238 1825 3413 1275 
L 3809 0 
L 3144 0 
L 2778 1197 
Q 2638 1659 2453 1815 
Q 2269 1972 1888 1972 
L 1191 1972 
L 806 0 
L 172 0 
L 1081 4666 
L 2503 4666 
Q 3150 4666 3495 4373 
Q 3841 4081 3841 3531 
Q 3841 3044 3547 2687 
Q 3253 2331 2772 2241 
z
" transform="scale(0.015625)"/>
       <path id="DejaVuSans-Oblique-47" d="M 3494 697 
L 3738 1919 
L 2700 1919 
L 2797 2438 
L 4453 2438 
L 4050 384 
Q 3634 156 3143 32 
Q 2653 -91 2156 -91 
Q 1278 -91 783 396 
Q 288 884 288 1753 
Q 288 2475 589 3126 
Q 891 3778 1422 4213 
Q 1756 4484 2153 4617 
Q 2550 4750 3034 4750 
Q 3472 4750 3873 4639 
Q 4275 4528 4641 4306 
L 4513 3634 
Q 4231 3928 3853 4083 
Q 3475 4238 3047 4238 
Q 2550 4238 2172 4048 
Q 1794 3859 1497 3463 
Q 1244 3125 1098 2667 
Q 953 2209 953 1734 
Q 953 1081 1287 751 
Q 1622 422 2284 422 
Q 2616 422 2925 492 
Q 3234 563 3494 697 
z
" transform="scale(0.015625)"/>
       <path id="DejaVuSans-34" d="M 2419 4116 
L 825 1625 
L 2419 1625 
L 2419 4116 
z
M 2253 4666 
L 3047 4666 
L 3047 1625 
L 3713 1625 
L 3713 1100 
L 3047 1100 
L 3047 0 
L 2419 0 
L 2419 1100 
L 313 1100 
L 313 1709 
L 2253 4666 
z
" transform="scale(0.015625)"/>
       <path id="ArialMT-20" transform="scale(0.015625)"/>
       <path id="ArialMT-45" d="M 506 0 
L 506 4581 
L 3819 4581 
L 3819 4041 
L 1113 4041 
L 1113 2638 
L 3647 2638 
L 3647 2100 
L 1113 2100 
L 1113 541 
L 3925 541 
L 3925 0 
L 506 0 
z
" transform="scale(0.015625)"/>
       <path id="ArialMT-78" d="M 47 0 
L 1259 1725 
L 138 3319 
L 841 3319 
L 1350 2541 
Q 1494 2319 1581 2169 
Q 1719 2375 1834 2534 
L 2394 3319 
L 3066 3319 
L 1919 1756 
L 3153 0 
L 2463 0 
L 1781 1031 
L 1600 1309 
L 728 0 
L 47 0 
z
" transform="scale(0.015625)"/>
       <path id="ArialMT-70" d="M 422 -1272 
L 422 3319 
L 934 3319 
L 934 2888 
Q 1116 3141 1344 3267 
Q 1572 3394 1897 3394 
Q 2322 3394 2647 3175 
Q 2972 2956 3137 2557 
Q 3303 2159 3303 1684 
Q 3303 1175 3120 767 
Q 2938 359 2589 142 
Q 2241 -75 1856 -75 
Q 1575 -75 1351 44 
Q 1128 163 984 344 
L 984 -1272 
L 422 -1272 
z
M 931 1641 
Q 931 1000 1190 694 
Q 1450 388 1819 388 
Q 2194 388 2461 705 
Q 2728 1022 2728 1688 
Q 2728 2322 2467 2637 
Q 2206 2953 1844 2953 
Q 1484 2953 1207 2617 
Q 931 2281 931 1641 
z
" transform="scale(0.015625)"/>
       <path id="ArialMT-72" d="M 416 0 
L 416 3319 
L 922 3319 
L 922 2816 
Q 1116 3169 1280 3281 
Q 1444 3394 1641 3394 
Q 1925 3394 2219 3213 
L 2025 2691 
Q 1819 2813 1613 2813 
Q 1428 2813 1281 2702 
Q 1134 2591 1072 2394 
Q 978 2094 978 1738 
L 978 0 
L 416 0 
z
" transform="scale(0.015625)"/>
       <path id="ArialMT-65" d="M 2694 1069 
L 3275 997 
Q 3138 488 2766 206 
Q 2394 -75 1816 -75 
Q 1088 -75 661 373 
Q 234 822 234 1631 
Q 234 2469 665 2931 
Q 1097 3394 1784 3394 
Q 2450 3394 2872 2941 
Q 3294 2488 3294 1666 
Q 3294 1616 3291 1516 
L 816 1516 
Q 847 969 1125 678 
Q 1403 388 1819 388 
Q 2128 388 2347 550 
Q 2566 713 2694 1069 
z
M 847 1978 
L 2700 1978 
Q 2663 2397 2488 2606 
Q 2219 2931 1791 2931 
Q 1403 2931 1139 2672 
Q 875 2413 847 1978 
z
" transform="scale(0.015625)"/>
       <path id="ArialMT-73" d="M 197 991 
L 753 1078 
Q 800 744 1014 566 
Q 1228 388 1613 388 
Q 2000 388 2187 545 
Q 2375 703 2375 916 
Q 2375 1106 2209 1216 
Q 2094 1291 1634 1406 
Q 1016 1563 777 1677 
Q 538 1791 414 1992 
Q 291 2194 291 2438 
Q 291 2659 392 2848 
Q 494 3038 669 3163 
Q 800 3259 1026 3326 
Q 1253 3394 1513 3394 
Q 1903 3394 2198 3281 
Q 2494 3169 2634 2976 
Q 2775 2784 2828 2463 
L 2278 2388 
Q 2241 2644 2061 2787 
Q 1881 2931 1553 2931 
Q 1166 2931 1000 2803 
Q 834 2675 834 2503 
Q 834 2394 903 2306 
Q 972 2216 1119 2156 
Q 1203 2125 1616 2013 
Q 2213 1853 2448 1751 
Q 2684 1650 2818 1456 
Q 2953 1263 2953 975 
Q 2953 694 2789 445 
Q 2625 197 2315 61 
Q 2006 -75 1616 -75 
Q 969 -75 630 194 
Q 291 463 197 991 
z
" transform="scale(0.015625)"/>
       <path id="ArialMT-69" d="M 425 3934 
L 425 4581 
L 988 4581 
L 988 3934 
L 425 3934 
z
M 425 0 
L 425 3319 
L 988 3319 
L 988 0 
L 425 0 
z
" transform="scale(0.015625)"/>
       <path id="ArialMT-6f" d="M 213 1659 
Q 213 2581 725 3025 
Q 1153 3394 1769 3394 
Q 2453 3394 2887 2945 
Q 3322 2497 3322 1706 
Q 3322 1066 3130 698 
Q 2938 331 2570 128 
Q 2203 -75 1769 -75 
Q 1072 -75 642 372 
Q 213 819 213 1659 
z
M 791 1659 
Q 791 1022 1069 705 
Q 1347 388 1769 388 
Q 2188 388 2466 706 
Q 2744 1025 2744 1678 
Q 2744 2294 2464 2611 
Q 2184 2928 1769 2928 
Q 1347 2928 1069 2612 
Q 791 2297 791 1659 
z
" transform="scale(0.015625)"/>
       <path id="ArialMT-6e" d="M 422 0 
L 422 3319 
L 928 3319 
L 928 2847 
Q 1294 3394 1984 3394 
Q 2284 3394 2536 3286 
Q 2788 3178 2913 3003 
Q 3038 2828 3088 2588 
Q 3119 2431 3119 2041 
L 3119 0 
L 2556 0 
L 2556 2019 
Q 2556 2363 2490 2533 
Q 2425 2703 2258 2804 
Q 2091 2906 1866 2906 
Q 1506 2906 1245 2678 
Q 984 2450 984 1813 
L 984 0 
L 422 0 
z
" transform="scale(0.015625)"/>
       <path id="ArialMT-46" d="M 525 0 
L 525 4581 
L 3616 4581 
L 3616 4041 
L 1131 4041 
L 1131 2622 
L 3281 2622 
L 3281 2081 
L 1131 2081 
L 1131 0 
L 525 0 
z
" transform="scale(0.015625)"/>
       <path id="ArialMT-6c" d="M 409 0 
L 409 4581 
L 972 4581 
L 972 0 
L 409 0 
z
" transform="scale(0.015625)"/>
       <path id="ArialMT-64" d="M 2575 0 
L 2575 419 
Q 2259 -75 1647 -75 
Q 1250 -75 917 144 
Q 584 363 401 755 
Q 219 1147 219 1656 
Q 219 2153 384 2558 
Q 550 2963 881 3178 
Q 1213 3394 1622 3394 
Q 1922 3394 2156 3267 
Q 2391 3141 2538 2938 
L 2538 4581 
L 3097 4581 
L 3097 0 
L 2575 0 
z
M 797 1656 
Q 797 1019 1065 703 
Q 1334 388 1700 388 
Q 2069 388 2326 689 
Q 2584 991 2584 1609 
Q 2584 2291 2321 2609 
Q 2059 2928 1675 2928 
Q 1300 2928 1048 2622 
Q 797 2316 797 1656 
z
" transform="scale(0.015625)"/>
       <path id="ArialMT-43" d="M 3763 1606 
L 4369 1453 
Q 4178 706 3683 314 
Q 3188 -78 2472 -78 
Q 1731 -78 1267 223 
Q 803 525 561 1097 
Q 319 1669 319 2325 
Q 319 3041 592 3573 
Q 866 4106 1370 4382 
Q 1875 4659 2481 4659 
Q 3169 4659 3637 4309 
Q 4106 3959 4291 3325 
L 3694 3184 
Q 3534 3684 3231 3912 
Q 2928 4141 2469 4141 
Q 1941 4141 1586 3887 
Q 1231 3634 1087 3207 
Q 944 2781 944 2328 
Q 944 1744 1114 1308 
Q 1284 872 1643 656 
Q 2003 441 2422 441 
Q 2931 441 3284 734 
Q 3638 1028 3763 1606 
z
" transform="scale(0.015625)"/>
       <path id="ArialMT-68" d="M 422 0 
L 422 4581 
L 984 4581 
L 984 2938 
Q 1378 3394 1978 3394 
Q 2347 3394 2619 3248 
Q 2891 3103 3008 2847 
Q 3125 2591 3125 2103 
L 3125 0 
L 2563 0 
L 2563 2103 
Q 2563 2525 2380 2717 
Q 2197 2909 1863 2909 
Q 1613 2909 1392 2779 
Q 1172 2650 1078 2428 
Q 984 2206 984 1816 
L 984 0 
L 422 0 
z
" transform="scale(0.015625)"/>
       <path id="ArialMT-61" d="M 2588 409 
Q 2275 144 1986 34 
Q 1697 -75 1366 -75 
Q 819 -75 525 192 
Q 231 459 231 875 
Q 231 1119 342 1320 
Q 453 1522 633 1644 
Q 813 1766 1038 1828 
Q 1203 1872 1538 1913 
Q 2219 1994 2541 2106 
Q 2544 2222 2544 2253 
Q 2544 2597 2384 2738 
Q 2169 2928 1744 2928 
Q 1347 2928 1158 2789 
Q 969 2650 878 2297 
L 328 2372 
Q 403 2725 575 2942 
Q 747 3159 1072 3276 
Q 1397 3394 1825 3394 
Q 2250 3394 2515 3294 
Q 2781 3194 2906 3042 
Q 3031 2891 3081 2659 
Q 3109 2516 3109 2141 
L 3109 1391 
Q 3109 606 3145 398 
Q 3181 191 3288 0 
L 2700 0 
Q 2613 175 2588 409 
z
M 2541 1666 
Q 2234 1541 1622 1453 
Q 1275 1403 1131 1340 
Q 988 1278 909 1158 
Q 831 1038 831 891 
Q 831 666 1001 516 
Q 1172 366 1500 366 
Q 1825 366 2078 508 
Q 2331 650 2450 897 
Q 2541 1088 2541 1459 
L 2541 1666 
z
" transform="scale(0.015625)"/>
       <path id="ArialMT-67" d="M 319 -275 
L 866 -356 
Q 900 -609 1056 -725 
Q 1266 -881 1628 -881 
Q 2019 -881 2231 -725 
Q 2444 -569 2519 -288 
Q 2563 -116 2559 434 
Q 2191 0 1641 0 
Q 956 0 581 494 
Q 206 988 206 1678 
Q 206 2153 378 2554 
Q 550 2956 876 3175 
Q 1203 3394 1644 3394 
Q 2231 3394 2613 2919 
L 2613 3319 
L 3131 3319 
L 3131 450 
Q 3131 -325 2973 -648 
Q 2816 -972 2473 -1159 
Q 2131 -1347 1631 -1347 
Q 1038 -1347 672 -1080 
Q 306 -813 319 -275 
z
M 784 1719 
Q 784 1066 1043 766 
Q 1303 466 1694 466 
Q 2081 466 2343 764 
Q 2606 1063 2606 1700 
Q 2606 2309 2336 2618 
Q 2066 2928 1684 2928 
Q 1309 2928 1046 2623 
Q 784 2319 784 1719 
z
" transform="scale(0.015625)"/>
      </defs>
      <use xlink:href="#DejaVuSans-Oblique-45" transform="translate(0 0.78125)"/>
      <use xlink:href="#DejaVuSans-Oblique-52" transform="translate(63.183594 0.78125)"/>
      <use xlink:href="#DejaVuSans-Oblique-47" transform="translate(132.666016 0.78125)"/>
      <use xlink:href="#DejaVuSans-34" transform="translate(210.15625 0.78125)"/>
      <use xlink:href="#ArialMT-20" transform="translate(273.779297 0.78125)"/>
      <use xlink:href="#ArialMT-45" transform="translate(301.5625 0.78125)"/>
      <use xlink:href="#ArialMT-78" transform="translate(368.261719 0.78125)"/>
      <use xlink:href="#ArialMT-70" transform="translate(418.261719 0.78125)"/>
      <use xlink:href="#ArialMT-72" transform="translate(473.876953 0.78125)"/>
      <use xlink:href="#ArialMT-65" transform="translate(507.177734 0.78125)"/>
      <use xlink:href="#ArialMT-73" transform="translate(562.792969 0.78125)"/>
      <use xlink:href="#ArialMT-73" transform="translate(612.792969 0.78125)"/>
      <use xlink:href="#ArialMT-69" transform="translate(662.792969 0.78125)"/>
      <use xlink:href="#ArialMT-6f" transform="translate(685.009766 0.78125)"/>
      <use xlink:href="#ArialMT-6e" transform="translate(740.625 0.78125)"/>
      <use xlink:href="#ArialMT-20" transform="translate(796.240234 0.78125)"/>
      <use xlink:href="#ArialMT-46" transform="translate(824.023438 0.78125)"/>
      <use xlink:href="#ArialMT-6f" transform="translate(885.107422 0.78125)"/>
      <use xlink:href="#ArialMT-6c" transform="translate(940.722656 0.78125)"/>
      <use xlink:href="#ArialMT-64" transform="translate(962.939453 0.78125)"/>
      <use xlink:href="#ArialMT-20" transform="translate(1018.554688 0.78125)"/>
      <use xlink:href="#ArialMT-43" transform="translate(1046.337891 0.78125)"/>
      <use xlink:href="#ArialMT-68" transform="translate(1118.554688 0.78125)"/>
      <use xlink:href="#ArialMT-61" transform="translate(1174.169922 0.78125)"/>
      <use xlink:href="#ArialMT-6e" transform="translate(1229.785156 0.78125)"/>
      <use xlink:href="#ArialMT-67" transform="translate(1285.400391 0.78125)"/>
      <use xlink:href="#ArialMT-65" transform="translate(1341.015625 0.78125)"/>
     </g>
    </g>
   </g>
   <g id="matplotlib.axis_2">
    <g id="ytick_1">
     <g id="line2d_6">
      <defs>
       <path id="m2f6b95de14" d="M 0 0 
L -3.5 0 
" style="stroke: #000000; stroke-width: 0.8"/>
      </defs>
      <g>
       <use xlink:href="#m2f6b95de14" x="22.5" y="28.152" style="stroke: #000000; stroke-width: 0.8"/>
      </g>
     </g>
     <g id="text_7">
      <!-- Consensus -->
      <g transform="translate(-19.518594 30.657234)scale(0.07 -0.07)">
       <defs>
        <path id="ArialMT-75" d="M 2597 0 
L 2597 488 
Q 2209 -75 1544 -75 
Q 1250 -75 995 37 
Q 741 150 617 320 
Q 494 491 444 738 
Q 409 903 409 1263 
L 409 3319 
L 972 3319 
L 972 1478 
Q 972 1038 1006 884 
Q 1059 663 1231 536 
Q 1403 409 1656 409 
Q 1909 409 2131 539 
Q 2353 669 2445 892 
Q 2538 1116 2538 1541 
L 2538 3319 
L 3100 3319 
L 3100 0 
L 2597 0 
z
" transform="scale(0.015625)"/>
       </defs>
       <use xlink:href="#ArialMT-43"/>
       <use xlink:href="#ArialMT-6f" x="72.216797"/>
       <use xlink:href="#ArialMT-6e" x="127.832031"/>
       <use xlink:href="#ArialMT-73" x="183.447266"/>
       <use xlink:href="#ArialMT-65" x="233.447266"/>
       <use xlink:href="#ArialMT-6e" x="289.0625"/>
       <use xlink:href="#ArialMT-73" x="344.677734"/>
       <use xlink:href="#ArialMT-75" x="394.677734"/>
       <use xlink:href="#ArialMT-73" x="450.292969"/>
      </g>
     </g>
    </g>
    <g id="ytick_2">
     <g id="line2d_7">
      <g>
       <use xlink:href="#m2f6b95de14" x="22.5" y="49.896" style="stroke: #000000; stroke-width: 0.8"/>
      </g>
     </g>
     <g id="text_8">
      <!-- Wildtype -->
      <g transform="translate(-11.340625 52.401234)scale(0.07 -0.07)">
       <defs>
        <path id="ArialMT-57" d="M 1294 0 
L 78 4581 
L 700 4581 
L 1397 1578 
Q 1509 1106 1591 641 
Q 1766 1375 1797 1488 
L 2669 4581 
L 3400 4581 
L 4056 2263 
Q 4303 1400 4413 641 
Q 4500 1075 4641 1638 
L 5359 4581 
L 5969 4581 
L 4713 0 
L 4128 0 
L 3163 3491 
Q 3041 3928 3019 4028 
Q 2947 3713 2884 3491 
L 1913 0 
L 1294 0 
z
" transform="scale(0.015625)"/>
        <path id="ArialMT-74" d="M 1650 503 
L 1731 6 
Q 1494 -44 1306 -44 
Q 1000 -44 831 53 
Q 663 150 594 308 
Q 525 466 525 972 
L 525 2881 
L 113 2881 
L 113 3319 
L 525 3319 
L 525 4141 
L 1084 4478 
L 1084 3319 
L 1650 3319 
L 1650 2881 
L 1084 2881 
L 1084 941 
Q 1084 700 1114 631 
Q 1144 563 1211 522 
Q 1278 481 1403 481 
Q 1497 481 1650 503 
z
" transform="scale(0.015625)"/>
        <path id="ArialMT-79" d="M 397 -1278 
L 334 -750 
Q 519 -800 656 -800 
Q 844 -800 956 -737 
Q 1069 -675 1141 -563 
Q 1194 -478 1313 -144 
Q 1328 -97 1363 -6 
L 103 3319 
L 709 3319 
L 1400 1397 
Q 1534 1031 1641 628 
Q 1738 1016 1872 1384 
L 2581 3319 
L 3144 3319 
L 1881 -56 
Q 1678 -603 1566 -809 
Q 1416 -1088 1222 -1217 
Q 1028 -1347 759 -1347 
Q 597 -1347 397 -1278 
z
" transform="scale(0.015625)"/>
       </defs>
       <use xlink:href="#ArialMT-57"/>
       <use xlink:href="#ArialMT-69" x="94.384766"/>
       <use xlink:href="#ArialMT-6c" x="116.601562"/>
       <use xlink:href="#ArialMT-64" x="138.818359"/>
       <use xlink:href="#ArialMT-74" x="194.433594"/>
       <use xlink:href="#ArialMT-79" x="222.216797"/>
       <use xlink:href="#ArialMT-70" x="272.216797"/>
       <use xlink:href="#ArialMT-65" x="327.832031"/>
      </g>
     </g>
    </g>
    <g id="ytick_3">
     <g id="line2d_8">
      <g>
       <use xlink:href="#m2f6b95de14" x="22.5" y="71.64" style="stroke: #000000; stroke-width: 0.8"/>
      </g>
     </g>
     <g id="text_9">
      <!-- chr7:472522 C&gt;A -->
      <g transform="translate(-39.174375 74.145234)scale(0.07 -0.07)">
       <defs>
        <path id="ArialMT-63" d="M 2588 1216 
L 3141 1144 
Q 3050 572 2676 248 
Q 2303 -75 1759 -75 
Q 1078 -75 664 370 
Q 250 816 250 1647 
Q 250 2184 428 2587 
Q 606 2991 970 3192 
Q 1334 3394 1763 3394 
Q 2303 3394 2647 3120 
Q 2991 2847 3088 2344 
L 2541 2259 
Q 2463 2594 2264 2762 
Q 2066 2931 1784 2931 
Q 1359 2931 1093 2626 
Q 828 2322 828 1663 
Q 828 994 1084 691 
Q 1341 388 1753 388 
Q 2084 388 2306 591 
Q 2528 794 2588 1216 
z
" transform="scale(0.015625)"/>
        <path id="ArialMT-37" d="M 303 3981 
L 303 4522 
L 3269 4522 
L 3269 4084 
Q 2831 3619 2401 2847 
Q 1972 2075 1738 1259 
Q 1569 684 1522 0 
L 944 0 
Q 953 541 1156 1306 
Q 1359 2072 1739 2783 
Q 2119 3494 2547 3981 
L 303 3981 
z
" transform="scale(0.015625)"/>
        <path id="ArialMT-3a" d="M 578 2678 
L 578 3319 
L 1219 3319 
L 1219 2678 
L 578 2678 
z
M 578 0 
L 578 641 
L 1219 641 
L 1219 0 
L 578 0 
z
" transform="scale(0.015625)"/>
        <path id="ArialMT-34" d="M 2069 0 
L 2069 1097 
L 81 1097 
L 81 1613 
L 2172 4581 
L 2631 4581 
L 2631 1613 
L 3250 1613 
L 3250 1097 
L 2631 1097 
L 2631 0 
L 2069 0 
z
M 2069 1613 
L 2069 3678 
L 634 1613 
L 2069 1613 
z
" transform="scale(0.015625)"/>
        <path id="ArialMT-3e" d="M 3384 2003 
L 350 706 
L 350 1266 
L 2753 2263 
L 350 3250 
L 350 3809 
L 3384 2528 
L 3384 2003 
z
" transform="scale(0.015625)"/>
        <path id="ArialMT-41" d="M -9 0 
L 1750 4581 
L 2403 4581 
L 4278 0 
L 3588 0 
L 3053 1388 
L 1138 1388 
L 634 0 
L -9 0 
z
M 1313 1881 
L 2866 1881 
L 2388 3150 
Q 2169 3728 2063 4100 
Q 1975 3659 1816 3225 
L 1313 1881 
z
" transform="scale(0.015625)"/>
       </defs>
       <use xlink:href="#ArialMT-63"/>
       <use xlink:href="#ArialMT-68" x="50"/>
       <use xlink:href="#ArialMT-72" x="105.615234"/>
       <use xlink:href="#ArialMT-37" x="138.916016"/>
       <use xlink:href="#ArialMT-3a" x="194.53125"/>
       <use xlink:href="#ArialMT-34" x="222.314453"/>
       <use xlink:href="#ArialMT-37" x="277.929688"/>
       <use xlink:href="#ArialMT-32" x="333.544922"/>
       <use xlink:href="#ArialMT-35" x="389.160156"/>
       <use xlink:href="#ArialMT-32" x="444.775391"/>
       <use xlink:href="#ArialMT-32" x="500.390625"/>
       <use xlink:href="#ArialMT-20" x="556.005859"/>
       <use xlink:href="#ArialMT-43" x="583.789062"/>
       <use xlink:href="#ArialMT-3e" x="656.005859"/>
       <use xlink:href="#ArialMT-41" x="714.404297"/>
      </g>
     </g>
    </g>
    <g id="ytick_4">
     <g id="line2d_9">
      <g>
       <use xlink:href="#m2f6b95de14" x="22.5" y="93.384" style="stroke: #000000; stroke-width: 0.8"/>
      </g>
     </g>
     <g id="text_10">
      <!-- chr7:472525 T&gt;A -->
      <g transform="translate(-38.272031 95.889234)scale(0.07 -0.07)">
       <defs>
        <path id="ArialMT-54" d="M 1659 0 
L 1659 4041 
L 150 4041 
L 150 4581 
L 3781 4581 
L 3781 4041 
L 2266 4041 
L 2266 0 
L 1659 0 
z
" transform="scale(0.015625)"/>
       </defs>
       <use xlink:href="#ArialMT-63"/>
       <use xlink:href="#ArialMT-68" x="50"/>
       <use xlink:href="#ArialMT-72" x="105.615234"/>
       <use xlink:href="#ArialMT-37" x="138.916016"/>
       <use xlink:href="#ArialMT-3a" x="194.53125"/>
       <use xlink:href="#ArialMT-34" x="222.314453"/>
       <use xlink:href="#ArialMT-37" x="277.929688"/>
       <use xlink:href="#ArialMT-32" x="333.544922"/>
       <use xlink:href="#ArialMT-35" x="389.160156"/>
       <use xlink:href="#ArialMT-32" x="444.775391"/>
       <use xlink:href="#ArialMT-35" x="500.390625"/>
       <use xlink:href="#ArialMT-20" x="556.005859"/>
       <use xlink:href="#ArialMT-54" x="582.039062"/>
       <use xlink:href="#ArialMT-3e" x="643.123047"/>
       <use xlink:href="#ArialMT-41" x="701.521484"/>
      </g>
     </g>
    </g>
    <g id="ytick_5">
     <g id="line2d_10">
      <g>
       <use xlink:href="#m2f6b95de14" x="22.5" y="115.128" style="stroke: #000000; stroke-width: 0.8"/>
      </g>
     </g>
     <g id="text_11">
      <!-- Mutated TFBS -->
      <g transform="translate(-29.502344 117.633234)scale(0.07 -0.07)">
       <defs>
        <path id="ArialMT-4d" d="M 475 0 
L 475 4581 
L 1388 4581 
L 2472 1338 
Q 2622 884 2691 659 
Q 2769 909 2934 1394 
L 4031 4581 
L 4847 4581 
L 4847 0 
L 4263 0 
L 4263 3834 
L 2931 0 
L 2384 0 
L 1059 3900 
L 1059 0 
L 475 0 
z
" transform="scale(0.015625)"/>
        <path id="ArialMT-42" d="M 469 0 
L 469 4581 
L 2188 4581 
Q 2713 4581 3030 4442 
Q 3347 4303 3526 4014 
Q 3706 3725 3706 3409 
Q 3706 3116 3547 2856 
Q 3388 2597 3066 2438 
Q 3481 2316 3704 2022 
Q 3928 1728 3928 1328 
Q 3928 1006 3792 729 
Q 3656 453 3456 303 
Q 3256 153 2954 76 
Q 2653 0 2216 0 
L 469 0 
z
M 1075 2656 
L 2066 2656 
Q 2469 2656 2644 2709 
Q 2875 2778 2992 2937 
Q 3109 3097 3109 3338 
Q 3109 3566 3000 3739 
Q 2891 3913 2687 3977 
Q 2484 4041 1991 4041 
L 1075 4041 
L 1075 2656 
z
M 1075 541 
L 2216 541 
Q 2509 541 2628 563 
Q 2838 600 2978 687 
Q 3119 775 3209 942 
Q 3300 1109 3300 1328 
Q 3300 1584 3169 1773 
Q 3038 1963 2805 2039 
Q 2572 2116 2134 2116 
L 1075 2116 
L 1075 541 
z
" transform="scale(0.015625)"/>
        <path id="ArialMT-53" d="M 288 1472 
L 859 1522 
Q 900 1178 1048 958 
Q 1197 738 1509 602 
Q 1822 466 2213 466 
Q 2559 466 2825 569 
Q 3091 672 3220 851 
Q 3350 1031 3350 1244 
Q 3350 1459 3225 1620 
Q 3100 1781 2813 1891 
Q 2628 1963 1997 2114 
Q 1366 2266 1113 2400 
Q 784 2572 623 2826 
Q 463 3081 463 3397 
Q 463 3744 659 4045 
Q 856 4347 1234 4503 
Q 1613 4659 2075 4659 
Q 2584 4659 2973 4495 
Q 3363 4331 3572 4012 
Q 3781 3694 3797 3291 
L 3216 3247 
Q 3169 3681 2898 3903 
Q 2628 4125 2100 4125 
Q 1550 4125 1298 3923 
Q 1047 3722 1047 3438 
Q 1047 3191 1225 3031 
Q 1400 2872 2139 2705 
Q 2878 2538 3153 2413 
Q 3553 2228 3743 1945 
Q 3934 1663 3934 1294 
Q 3934 928 3725 604 
Q 3516 281 3123 101 
Q 2731 -78 2241 -78 
Q 1619 -78 1198 103 
Q 778 284 539 648 
Q 300 1013 288 1472 
z
" transform="scale(0.015625)"/>
       </defs>
       <use xlink:href="#ArialMT-4d"/>
       <use xlink:href="#ArialMT-75" x="83.300781"/>
       <use xlink:href="#ArialMT-74" x="138.916016"/>
       <use xlink:href="#ArialMT-61" x="166.699219"/>
       <use xlink:href="#ArialMT-74" x="222.314453"/>
       <use xlink:href="#ArialMT-65" x="250.097656"/>
       <use xlink:href="#ArialMT-64" x="305.712891"/>
       <use xlink:href="#ArialMT-20" x="361.328125"/>
       <use xlink:href="#ArialMT-54" x="387.361328"/>
       <use xlink:href="#ArialMT-46" x="448.445312"/>
       <use xlink:href="#ArialMT-42" x="509.529297"/>
       <use xlink:href="#ArialMT-53" x="576.228516"/>
      </g>
     </g>
    </g>
   </g>
   <g id="line2d_11">
    <path d="M 125.708735 23.8032 
L 151.647259 23.8032 
" clip-path="url(#p43905a0d7d)" style="fill: none; stroke: #424242; stroke-width: 1.44; stroke-linecap: square"/>
   </g>
   <g id="line2d_12">
    <path d="M 125.708735 22.716 
L 125.708735 24.8904 
" clip-path="url(#p43905a0d7d)" style="fill: none; stroke: #424242; stroke-width: 1.44; stroke-linecap: square"/>
   </g>
   <g id="line2d_13">
    <path d="M 151.647259 22.716 
L 151.647259 24.8904 
" clip-path="url(#p43905a0d7d)" style="fill: none; stroke: #424242; stroke-width: 1.44; stroke-linecap: square"/>
   </g>
   <g id="line2d_14">
    <path d="M 72.073403 45.5472 
L 89.05024 45.5472 
" clip-path="url(#p43905a0d7d)" style="fill: none; stroke: #424242; stroke-width: 1.44; stroke-linecap: square"/>
   </g>
   <g id="line2d_15">
    <path d="M 72.073403 44.46 
L 72.073403 46.6344 
" clip-path="url(#p43905a0d7d)" style="fill: none; stroke: #424242; stroke-width: 1.44; stroke-linecap: square"/>
   </g>
   <g id="line2d_16">
    <path d="M 89.05024 44.46 
L 89.05024 46.6344 
" clip-path="url(#p43905a0d7d)" style="fill: none; stroke: #424242; stroke-width: 1.44; stroke-linecap: square"/>
   </g>
   <g id="line2d_17">
    <path d="M 53.68861 67.2912 
L 70.683116 67.2912 
" clip-path="url(#p43905a0d7d)" style="fill: none; stroke: #424242; stroke-width: 1.44; stroke-linecap: square"/>
   </g>
   <g id="line2d_18">
    <path d="M 53.68861 66.204 
L 53.68861 68.3784 
" clip-path="url(#p43905a0d7d)" style="fill: none; stroke: #424242; stroke-width: 1.44; stroke-linecap: square"/>
   </g>
   <g id="line2d_19">
    <path d="M 70.683116 66.204 
L 70.683116 68.3784 
" clip-path="url(#p43905a0d7d)" style="fill: none; stroke: #424242; stroke-width: 1.44; stroke-linecap: square"/>
   </g>
   <g id="line2d_20">
    <path d="M 135.377553 89.0352 
L 155.357143 89.0352 
" clip-path="url(#p43905a0d7d)" style="fill: none; stroke: #424242; stroke-width: 1.44; stroke-linecap: square"/>
   </g>
   <g id="line2d_21">
    <path d="M 135.377553 87.948 
L 135.377553 90.1224 
" clip-path="url(#p43905a0d7d)" style="fill: none; stroke: #424242; stroke-width: 1.44; stroke-linecap: square"/>
   </g>
   <g id="line2d_22">
    <path d="M 155.357143 87.948 
L 155.357143 90.1224 
" clip-path="url(#p43905a0d7d)" style="fill: none; stroke: #424242; stroke-width: 1.44; stroke-linecap: square"/>
   </g>
   <g id="line2d_23">
    <path d="M 48.257347 110.7792 
L 71.651458 110.7792 
" clip-path="url(#p43905a0d7d)" style="fill: none; stroke: #424242; stroke-width: 1.44; stroke-linecap: square"/>
   </g>
   <g id="line2d_24">
    <path d="M 48.257347 109.692 
L 48.257347 111.8664 
" clip-path="url(#p43905a0d7d)" style="fill: none; stroke: #424242; stroke-width: 1.44; stroke-linecap: square"/>
   </g>
   <g id="line2d_25">
    <path d="M 71.651458 109.692 
L 71.651458 111.8664 
" clip-path="url(#p43905a0d7d)" style="fill: none; stroke: #424242; stroke-width: 1.44; stroke-linecap: square"/>
   </g>
   <g id="line2d_26">
    <path d="M 106.252815 32.5008 
L 127.407901 32.5008 
" clip-path="url(#p43905a0d7d)" style="fill: none; stroke: #424242; stroke-width: 1.44; stroke-linecap: square"/>
   </g>
   <g id="line2d_27">
    <path d="M 106.252815 31.4136 
L 106.252815 33.588 
" clip-path="url(#p43905a0d7d)" style="fill: none; stroke: #424242; stroke-width: 1.44; stroke-linecap: square"/>
   </g>
   <g id="line2d_28">
    <path d="M 127.407901 31.4136 
L 127.407901 33.588 
" clip-path="url(#p43905a0d7d)" style="fill: none; stroke: #424242; stroke-width: 1.44; stroke-linecap: square"/>
   </g>
   <g id="line2d_29">
    <path d="M 66.798648 54.2448 
L 95.642184 54.2448 
" clip-path="url(#p43905a0d7d)" style="fill: none; stroke: #424242; stroke-width: 1.44; stroke-linecap: square"/>
   </g>
   <g id="line2d_30">
    <path d="M 66.798648 53.1576 
L 66.798648 55.332 
" clip-path="url(#p43905a0d7d)" style="fill: none; stroke: #424242; stroke-width: 1.44; stroke-linecap: square"/>
   </g>
   <g id="line2d_31">
    <path d="M 95.642184 53.1576 
L 95.642184 55.332 
" clip-path="url(#p43905a0d7d)" style="fill: none; stroke: #424242; stroke-width: 1.44; stroke-linecap: square"/>
   </g>
   <g id="line2d_32">
    <path d="M 51.015126 75.9888 
L 66.771849 75.9888 
" clip-path="url(#p43905a0d7d)" style="fill: none; stroke: #424242; stroke-width: 1.44; stroke-linecap: square"/>
   </g>
   <g id="line2d_33">
    <path d="M 51.015126 74.9016 
L 51.015126 77.076 
" clip-path="url(#p43905a0d7d)" style="fill: none; stroke: #424242; stroke-width: 1.44; stroke-linecap: square"/>
   </g>
   <g id="line2d_34">
    <path d="M 66.771849 74.9016 
L 66.771849 77.076 
" clip-path="url(#p43905a0d7d)" style="fill: none; stroke: #424242; stroke-width: 1.44; stroke-linecap: square"/>
   </g>
   <g id="line2d_35">
    <path d="M 75.459175 97.7328 
L 106.841531 97.7328 
" clip-path="url(#p43905a0d7d)" style="fill: none; stroke: #424242; stroke-width: 1.44; stroke-linecap: square"/>
   </g>
   <g id="line2d_36">
    <path d="M 75.459175 96.6456 
L 75.459175 98.82 
" clip-path="url(#p43905a0d7d)" style="fill: none; stroke: #424242; stroke-width: 1.44; stroke-linecap: square"/>
   </g>
   <g id="line2d_37">
    <path d="M 106.841531 96.6456 
L 106.841531 98.82 
" clip-path="url(#p43905a0d7d)" style="fill: none; stroke: #424242; stroke-width: 1.44; stroke-linecap: square"/>
   </g>
   <g id="line2d_38">
    <path d="M 41.478775 119.4768 
L 53.2564 119.4768 
" clip-path="url(#p43905a0d7d)" style="fill: none; stroke: #424242; stroke-width: 1.44; stroke-linecap: square"/>
   </g>
   <g id="line2d_39">
    <path d="M 41.478775 118.3896 
L 41.478775 120.564 
" clip-path="url(#p43905a0d7d)" style="fill: none; stroke: #424242; stroke-width: 1.44; stroke-linecap: square"/>
   </g>
   <g id="line2d_40">
    <path d="M 53.2564 118.3896 
L 53.2564 120.564 
" clip-path="url(#p43905a0d7d)" style="fill: none; stroke: #424242; stroke-width: 1.44; stroke-linecap: square"/>
   </g>
   <g id="line2d_41">
    <path d="M 82.608286 126 
L 82.608286 17.28 
" clip-path="url(#p43905a0d7d)" style="fill: none; stroke-dasharray: 2.96,1.28; stroke-dashoffset: 0; stroke: #000000; stroke-width: 0.8"/>
   </g>
   <g id="patch_13">
    <path d="M 22.5 126 
L 22.5 17.28 
" style="fill: none; stroke: #000000; stroke-width: 0.8; stroke-linejoin: miter; stroke-linecap: square"/>
   </g>
   <g id="patch_14">
    <path d="M 162 126 
L 162 17.28 
" style="fill: none; stroke: #000000; stroke-width: 0.8; stroke-linejoin: miter; stroke-linecap: square"/>
   </g>
   <g id="patch_15">
    <path d="M 22.5 126 
L 162 126 
" style="fill: none; stroke: #000000; stroke-width: 0.8; stroke-linejoin: miter; stroke-linecap: square"/>
   </g>
   <g id="patch_16">
    <path d="M 22.5 17.28 
L 162 17.28 
" style="fill: none; stroke: #000000; stroke-width: 0.8; stroke-linejoin: miter; stroke-linecap: square"/>
   </g>
   <g id="legend_1">
    <g id="patch_17">
     <path d="M 119.144688 122.5 
L 157.1 122.5 
Q 158.5 122.5 158.5 121.1 
L 158.5 101.996563 
Q 158.5 100.596563 157.1 100.596563 
L 119.144688 100.596563 
Q 117.744687 100.596563 117.744687 101.996563 
L 117.744687 121.1 
Q 117.744687 122.5 119.144688 122.5 
z
" style="fill: #ffffff; opacity: 0.8; stroke: #cccccc; stroke-linejoin: miter"/>
    </g>
    <g id="patch_18">
     <path d="M 120.544687 108.407031 
L 134.544688 108.407031 
L 134.544688 103.507031 
L 120.544687 103.507031 
z
" style="fill: #d3d3d3"/>
    </g>
    <g id="text_12">
     <!-- SCM -->
     <g transform="translate(140.144688 108.407031)scale(0.07 -0.07)">
      <use xlink:href="#ArialMT-53"/>
      <use xlink:href="#ArialMT-43" x="66.699219"/>
      <use xlink:href="#ArialMT-4d" x="138.916016"/>
     </g>
    </g>
    <g id="patch_19">
     <path d="M 120.544687 118.30875 
L 134.544688 118.30875 
L 134.544688 113.40875 
L 120.544687 113.40875 
z
"/>
    </g>
    <g id="text_13">
     <!-- LOV -->
     <g transform="translate(140.144688 118.30875)scale(0.07 -0.07)">
      <defs>
       <path id="ArialMT-4c" d="M 469 0 
L 469 4581 
L 1075 4581 
L 1075 541 
L 3331 541 
L 3331 0 
L 469 0 
z
" transform="scale(0.015625)"/>
       <path id="ArialMT-4f" d="M 309 2231 
Q 309 3372 921 4017 
Q 1534 4663 2503 4663 
Q 3138 4663 3647 4359 
Q 4156 4056 4423 3514 
Q 4691 2972 4691 2284 
Q 4691 1588 4409 1038 
Q 4128 488 3612 205 
Q 3097 -78 2500 -78 
Q 1853 -78 1343 234 
Q 834 547 571 1087 
Q 309 1628 309 2231 
z
M 934 2222 
Q 934 1394 1379 917 
Q 1825 441 2497 441 
Q 3181 441 3623 922 
Q 4066 1403 4066 2288 
Q 4066 2847 3877 3264 
Q 3688 3681 3323 3911 
Q 2959 4141 2506 4141 
Q 1863 4141 1398 3698 
Q 934 3256 934 2222 
z
" transform="scale(0.015625)"/>
       <path id="ArialMT-56" d="M 1803 0 
L 28 4581 
L 684 4581 
L 1875 1253 
Q 2019 853 2116 503 
Q 2222 878 2363 1253 
L 3600 4581 
L 4219 4581 
L 2425 0 
L 1803 0 
z
" transform="scale(0.015625)"/>
      </defs>
      <use xlink:href="#ArialMT-4c"/>
      <use xlink:href="#ArialMT-4f" x="55.615234"/>
      <use xlink:href="#ArialMT-56" x="133.398438"/>
     </g>
    </g>
   </g>
  </g>
 </g>
 <defs>
  <clipPath id="p43905a0d7d">
   <rect x="22.5" y="17.28" width="139.5" height="108.72"/>
  </clipPath>
 </defs>
</svg>
